<?xml version="1.0" encoding="UTF-8"?>
<svg width="30px" height="33px" viewBox="0 0 30 33" version="1.1" xmlns="http://www.w3.org/2000/svg" xmlns:xlink="http://www.w3.org/1999/xlink">
    <!-- Generator: Sketch 55.2 (78181) - https://sketchapp.com -->
    <title>Combined Shape Copy</title>
    <desc>Created with Sketch.</desc>
    <g id="Page-1" stroke="none" stroke-width="1" fill="none" fill-rule="evenodd">
        <g id="Mobile" transform="translate(-15.000000, -653.000000)" fill="#00ADE9" fill-rule="nonzero">
            <g id="Group-7-Copy" transform="translate(15.000000, 595.300000)">
                <path d="M25.6369638,69.2714237 L26.653602,67.4591556 C28.3332652,69.890247 29.2615001,72.8075567 29.2615001,75.8132697 C29.2615001,79.7030159 27.7144419,83.3717538 24.9739389,86.1564585 C22.2334359,88.9411632 18.5646979,90.4440197 14.63075,90.4440197 C10.7410038,90.4440197 7.07226588,88.9411632 4.28756119,86.1564585 C1.5028565,83.4159555 1.59872116e-13,79.7472176 1.59872116e-13,75.8132697 C1.59872116e-13,71.8793218 1.59125982,68.1663822 4.33176285,65.3816775 C7.07226588,62.5969728 10.7410038,61.0941163 14.6749517,61.0941163 C17.4596564,61.0941163 20.0675544,61.8455446 22.3660408,63.2599977 L21.0841927,64.7186526 C20.5979744,64.4534426 20.1117561,64.2324343 19.6255378,64.011426 C18.0784797,63.3484011 16.3988165,62.9947878 14.6749517,62.9947878 C12.9510869,62.9947878 11.3156254,63.3484011 9.72436559,64.011426 C8.17730742,64.6744509 6.80705591,65.6026858 5.6578127,66.751929 C4.46436784,67.9453739 3.5803346,69.3156254 2.91730968,70.8184819 C2.25428475,72.3655401 1.90067146,74.0452032 1.90067146,75.769068 C1.90067146,77.4929328 2.25428475,79.1283943 2.91730968,80.7196541 C3.5803346,82.2667123 4.5085695,83.6369638 5.6578127,84.786207 C6.85125757,85.9796519 8.22150909,86.8636851 9.72436559,87.52671 C11.2714237,88.189735 12.9510869,88.5433483 14.6749517,88.5433483 C16.3988165,88.5433483 18.034278,88.189735 19.6255378,87.52671 C21.172596,86.8636851 22.5428475,85.9354502 23.6920907,84.786207 C24.8855356,83.5927622 25.7695688,82.2225106 26.4325937,80.7196541 C27.0956187,79.172596 27.4492319,77.4929328 27.4492319,75.769068 C27.4492319,74.0452032 27.0956187,72.4097417 26.4325937,70.8184819 C26.2115854,70.288062 25.9463754,69.757642 25.6369638,69.2714237 Z M29.1730968,58 C29.7477184,58 30.2781383,58.6188233 29.8361217,59.2818482 L15.0727667,83.5927622 C14.89596,83.8579721 14.63075,83.9905771 14.3655401,83.9905771 C14.0561284,83.9905771 13.7909185,83.8579721 13.6141118,83.5485605 L7.20487087,71.6141118 C6.89545923,70.9952886 7.38167751,70.3764653 7.95629912,70.3764653 C8.13310576,70.3764653 8.30991241,70.420667 8.44251739,70.5090703 L14.3655401,74.5756232 L28.5542735,58.3094116 C28.7310801,58.0884033 28.9520884,58 29.1730968,58 Z" id="Combined-Shape-Copy"></path>
            </g>
        </g>
    </g>
</svg>